<mxfile host="Electron" modified="2024-03-20T16:03:43.633Z" agent="Mozilla/5.0 (Windows NT 10.0; Win64; x64) AppleWebKit/537.36 (KHTML, like Gecko) draw.io/22.1.21 Chrome/120.0.6099.109 Electron/28.1.0 Safari/537.36" etag="n3WBTMFJ-R3rK-XLkmCc" version="22.1.21" type="device">
  <diagram id="R2lEEEUBdFMjLlhIrx00" name="Page-1">
    <mxGraphModel dx="2839" dy="1310" grid="0" gridSize="10" guides="1" tooltips="1" connect="1" arrows="1" fold="1" page="0" pageScale="1" pageWidth="850" pageHeight="1100" math="0" shadow="0" extFonts="Permanent Marker^https://fonts.googleapis.com/css?family=Permanent+Marker">
      <root>
        <mxCell id="0" />
        <mxCell id="1" parent="0" />
        <mxCell id="byPFdI-Wewx-5iclTyy2-1" value="用户" style="whiteSpace=wrap;html=1;align=center;" parent="1" vertex="1">
          <mxGeometry x="-60" y="418" width="100" height="40" as="geometry" />
        </mxCell>
        <mxCell id="byPFdI-Wewx-5iclTyy2-2" value="用户名" style="ellipse;whiteSpace=wrap;html=1;align=center;" parent="1" vertex="1">
          <mxGeometry x="-90" y="298" width="100" height="40" as="geometry" />
        </mxCell>
        <mxCell id="byPFdI-Wewx-5iclTyy2-3" value="密码" style="ellipse;whiteSpace=wrap;html=1;align=center;" parent="1" vertex="1">
          <mxGeometry x="130" y="298" width="100" height="40" as="geometry" />
        </mxCell>
        <mxCell id="byPFdI-Wewx-5iclTyy2-5" value="&lt;u&gt;UID&lt;/u&gt;" style="ellipse;whiteSpace=wrap;html=1;align=center;" parent="1" vertex="1">
          <mxGeometry x="-210" y="298" width="100" height="40" as="geometry" />
        </mxCell>
        <mxCell id="byPFdI-Wewx-5iclTyy2-11" value="" style="endArrow=none;html=1;rounded=0;entryX=0.5;entryY=1;entryDx=0;entryDy=0;exitX=0.5;exitY=0;exitDx=0;exitDy=0;" parent="1" source="byPFdI-Wewx-5iclTyy2-1" target="byPFdI-Wewx-5iclTyy2-5" edge="1">
          <mxGeometry width="50" height="50" relative="1" as="geometry">
            <mxPoint x="-70" y="408" as="sourcePoint" />
            <mxPoint x="-100" y="348" as="targetPoint" />
          </mxGeometry>
        </mxCell>
        <mxCell id="byPFdI-Wewx-5iclTyy2-12" value="" style="endArrow=none;html=1;rounded=0;entryX=0.5;entryY=1;entryDx=0;entryDy=0;exitX=0.5;exitY=0;exitDx=0;exitDy=0;" parent="1" source="byPFdI-Wewx-5iclTyy2-1" target="byPFdI-Wewx-5iclTyy2-2" edge="1">
          <mxGeometry width="50" height="50" relative="1" as="geometry">
            <mxPoint x="100" y="528" as="sourcePoint" />
            <mxPoint x="150" y="478" as="targetPoint" />
          </mxGeometry>
        </mxCell>
        <mxCell id="byPFdI-Wewx-5iclTyy2-13" value="" style="endArrow=none;html=1;rounded=0;entryX=0.5;entryY=1;entryDx=0;entryDy=0;exitX=0.5;exitY=0;exitDx=0;exitDy=0;" parent="1" source="byPFdI-Wewx-5iclTyy2-1" target="byPFdI-Wewx-5iclTyy2-3" edge="1">
          <mxGeometry width="50" height="50" relative="1" as="geometry">
            <mxPoint x="100" y="528" as="sourcePoint" />
            <mxPoint x="150" y="478" as="targetPoint" />
          </mxGeometry>
        </mxCell>
        <mxCell id="byPFdI-Wewx-5iclTyy2-14" value="账号" style="ellipse;whiteSpace=wrap;html=1;align=center;" parent="1" vertex="1">
          <mxGeometry x="20" y="298" width="100" height="40" as="geometry" />
        </mxCell>
        <mxCell id="byPFdI-Wewx-5iclTyy2-15" value="" style="endArrow=none;html=1;rounded=0;entryX=0.5;entryY=1;entryDx=0;entryDy=0;exitX=0.5;exitY=0;exitDx=0;exitDy=0;" parent="1" source="byPFdI-Wewx-5iclTyy2-1" target="byPFdI-Wewx-5iclTyy2-14" edge="1">
          <mxGeometry width="50" height="50" relative="1" as="geometry">
            <mxPoint x="100" y="528" as="sourcePoint" />
            <mxPoint x="150" y="478" as="targetPoint" />
          </mxGeometry>
        </mxCell>
        <mxCell id="byPFdI-Wewx-5iclTyy2-16" value="练习" style="shape=rhombus;perimeter=rhombusPerimeter;whiteSpace=wrap;html=1;align=center;" parent="1" vertex="1">
          <mxGeometry x="-70" y="600" width="120" height="60" as="geometry" />
        </mxCell>
        <mxCell id="byPFdI-Wewx-5iclTyy2-17" value="题库题目" style="whiteSpace=wrap;html=1;align=center;" parent="1" vertex="1">
          <mxGeometry x="-60" y="750" width="100" height="40" as="geometry" />
        </mxCell>
        <mxCell id="byPFdI-Wewx-5iclTyy2-18" value="制定和学习" style="shape=rhombus;double=1;perimeter=rhombusPerimeter;whiteSpace=wrap;html=1;align=center;" parent="1" vertex="1">
          <mxGeometry x="100" y="408" width="120" height="60" as="geometry" />
        </mxCell>
        <mxCell id="byPFdI-Wewx-5iclTyy2-19" value="学习安排" style="shape=ext;margin=3;double=1;whiteSpace=wrap;html=1;align=center;" parent="1" vertex="1">
          <mxGeometry x="290" y="418" width="100" height="40" as="geometry" />
        </mxCell>
        <mxCell id="byPFdI-Wewx-5iclTyy2-21" value="搜题题目" style="shape=ext;margin=3;double=1;whiteSpace=wrap;html=1;align=center;" parent="1" vertex="1">
          <mxGeometry x="-430" y="423" width="100" height="30" as="geometry" />
        </mxCell>
        <mxCell id="byPFdI-Wewx-5iclTyy2-23" value="询问解答" style="shape=rhombus;double=1;perimeter=rhombusPerimeter;whiteSpace=wrap;html=1;align=center;" parent="1" vertex="1">
          <mxGeometry x="-260" y="408" width="120" height="60" as="geometry" />
        </mxCell>
        <mxCell id="byPFdI-Wewx-5iclTyy2-24" value="题目题干" style="ellipse;whiteSpace=wrap;html=1;align=center;" parent="1" vertex="1">
          <mxGeometry x="-105" y="880" width="100" height="40" as="geometry" />
        </mxCell>
        <mxCell id="byPFdI-Wewx-5iclTyy2-25" value="题目类型" style="ellipse;whiteSpace=wrap;html=1;align=center;" parent="1" vertex="1">
          <mxGeometry y="880" width="100" height="40" as="geometry" />
        </mxCell>
        <mxCell id="byPFdI-Wewx-5iclTyy2-26" value="&lt;u&gt;题目编号&lt;/u&gt;" style="ellipse;whiteSpace=wrap;html=1;align=center;" parent="1" vertex="1">
          <mxGeometry x="-210" y="880" width="100" height="40" as="geometry" />
        </mxCell>
        <mxCell id="byPFdI-Wewx-5iclTyy2-27" value="" style="endArrow=none;html=1;rounded=0;exitX=0.5;exitY=1;exitDx=0;exitDy=0;entryX=0.5;entryY=0;entryDx=0;entryDy=0;" parent="1" source="byPFdI-Wewx-5iclTyy2-17" target="byPFdI-Wewx-5iclTyy2-26" edge="1">
          <mxGeometry width="50" height="50" relative="1" as="geometry">
            <mxPoint x="105" y="590" as="sourcePoint" />
            <mxPoint x="155" y="540" as="targetPoint" />
          </mxGeometry>
        </mxCell>
        <mxCell id="byPFdI-Wewx-5iclTyy2-28" value="" style="endArrow=none;html=1;rounded=0;entryX=0.5;entryY=0;entryDx=0;entryDy=0;exitX=0.5;exitY=1;exitDx=0;exitDy=0;" parent="1" source="byPFdI-Wewx-5iclTyy2-17" target="byPFdI-Wewx-5iclTyy2-24" edge="1">
          <mxGeometry width="50" height="50" relative="1" as="geometry">
            <mxPoint x="-45" y="790" as="sourcePoint" />
            <mxPoint x="155" y="540" as="targetPoint" />
          </mxGeometry>
        </mxCell>
        <mxCell id="byPFdI-Wewx-5iclTyy2-29" value="" style="endArrow=none;html=1;rounded=0;exitX=0.5;exitY=1;exitDx=0;exitDy=0;entryX=0.5;entryY=0;entryDx=0;entryDy=0;" parent="1" source="byPFdI-Wewx-5iclTyy2-17" target="byPFdI-Wewx-5iclTyy2-25" edge="1">
          <mxGeometry width="50" height="50" relative="1" as="geometry">
            <mxPoint x="105" y="590" as="sourcePoint" />
            <mxPoint x="155" y="540" as="targetPoint" />
          </mxGeometry>
        </mxCell>
        <mxCell id="byPFdI-Wewx-5iclTyy2-30" value="被作答次数和情况" style="ellipse;whiteSpace=wrap;html=1;align=center;" parent="1" vertex="1">
          <mxGeometry x="110" y="880" width="100" height="40" as="geometry" />
        </mxCell>
        <mxCell id="byPFdI-Wewx-5iclTyy2-31" value="" style="endArrow=none;html=1;rounded=0;exitX=0.5;exitY=1;exitDx=0;exitDy=0;entryX=0.5;entryY=0;entryDx=0;entryDy=0;" parent="1" source="byPFdI-Wewx-5iclTyy2-17" target="byPFdI-Wewx-5iclTyy2-30" edge="1">
          <mxGeometry width="50" height="50" relative="1" as="geometry">
            <mxPoint x="110" y="590" as="sourcePoint" />
            <mxPoint x="160" y="540" as="targetPoint" />
          </mxGeometry>
        </mxCell>
        <mxCell id="byPFdI-Wewx-5iclTyy2-32" value="作答时间" style="ellipse;whiteSpace=wrap;html=1;align=center;" parent="1" vertex="1">
          <mxGeometry x="-230" y="570" width="100" height="40" as="geometry" />
        </mxCell>
        <mxCell id="byPFdI-Wewx-5iclTyy2-33" value="作答结果" style="ellipse;whiteSpace=wrap;html=1;align=center;" parent="1" vertex="1">
          <mxGeometry x="-230" y="650" width="100" height="40" as="geometry" />
        </mxCell>
        <mxCell id="byPFdI-Wewx-5iclTyy2-35" value="" style="endArrow=none;html=1;rounded=0;exitX=1;exitY=0.5;exitDx=0;exitDy=0;entryX=0;entryY=0.5;entryDx=0;entryDy=0;" parent="1" source="byPFdI-Wewx-5iclTyy2-32" target="byPFdI-Wewx-5iclTyy2-16" edge="1">
          <mxGeometry width="50" height="50" relative="1" as="geometry">
            <mxPoint x="140" y="590" as="sourcePoint" />
            <mxPoint x="190" y="540" as="targetPoint" />
          </mxGeometry>
        </mxCell>
        <mxCell id="byPFdI-Wewx-5iclTyy2-36" value="" style="endArrow=none;html=1;rounded=0;exitX=1;exitY=0.5;exitDx=0;exitDy=0;entryX=0;entryY=0.5;entryDx=0;entryDy=0;" parent="1" source="byPFdI-Wewx-5iclTyy2-33" target="byPFdI-Wewx-5iclTyy2-16" edge="1">
          <mxGeometry width="50" height="50" relative="1" as="geometry">
            <mxPoint x="-100" y="600" as="sourcePoint" />
            <mxPoint x="-50" y="640" as="targetPoint" />
          </mxGeometry>
        </mxCell>
        <mxCell id="byPFdI-Wewx-5iclTyy2-38" value="" style="endArrow=none;html=1;rounded=0;exitX=0.5;exitY=0;exitDx=0;exitDy=0;entryX=0.5;entryY=1;entryDx=0;entryDy=0;" parent="1" source="byPFdI-Wewx-5iclTyy2-16" target="byPFdI-Wewx-5iclTyy2-1" edge="1">
          <mxGeometry width="50" height="50" relative="1" as="geometry">
            <mxPoint x="140" y="578" as="sourcePoint" />
            <mxPoint x="190" y="528" as="targetPoint" />
          </mxGeometry>
        </mxCell>
        <mxCell id="byPFdI-Wewx-5iclTyy2-39" value="" style="endArrow=none;html=1;rounded=0;entryX=0.5;entryY=1;entryDx=0;entryDy=0;exitX=0.5;exitY=0;exitDx=0;exitDy=0;" parent="1" source="byPFdI-Wewx-5iclTyy2-17" target="byPFdI-Wewx-5iclTyy2-16" edge="1">
          <mxGeometry width="50" height="50" relative="1" as="geometry">
            <mxPoint x="140" y="590" as="sourcePoint" />
            <mxPoint x="190" y="540" as="targetPoint" />
          </mxGeometry>
        </mxCell>
        <mxCell id="byPFdI-Wewx-5iclTyy2-41" value="科目" style="ellipse;whiteSpace=wrap;html=1;align=center;" parent="1" vertex="1">
          <mxGeometry x="510" y="405" width="100" height="40" as="geometry" />
        </mxCell>
        <mxCell id="byPFdI-Wewx-5iclTyy2-42" value="知识深度" style="ellipse;whiteSpace=wrap;html=1;align=center;" parent="1" vertex="1">
          <mxGeometry x="510" y="475" width="100" height="40" as="geometry" />
        </mxCell>
        <mxCell id="byPFdI-Wewx-5iclTyy2-43" value="教学风格" style="ellipse;whiteSpace=wrap;html=1;align=center;" parent="1" vertex="1">
          <mxGeometry x="510" y="545" width="100" height="40" as="geometry" />
        </mxCell>
        <mxCell id="byPFdI-Wewx-5iclTyy2-44" value="" style="endArrow=none;html=1;rounded=0;entryX=0;entryY=0.5;entryDx=0;entryDy=0;exitX=1;exitY=0.5;exitDx=0;exitDy=0;" parent="1" source="byPFdI-Wewx-5iclTyy2-19" target="byPFdI-Wewx-5iclTyy2-41" edge="1">
          <mxGeometry width="50" height="50" relative="1" as="geometry">
            <mxPoint y="590" as="sourcePoint" />
            <mxPoint x="50" y="540" as="targetPoint" />
          </mxGeometry>
        </mxCell>
        <mxCell id="byPFdI-Wewx-5iclTyy2-45" value="" style="endArrow=none;html=1;rounded=0;entryX=0;entryY=0.5;entryDx=0;entryDy=0;exitX=1;exitY=0.5;exitDx=0;exitDy=0;" parent="1" source="byPFdI-Wewx-5iclTyy2-19" target="byPFdI-Wewx-5iclTyy2-42" edge="1">
          <mxGeometry width="50" height="50" relative="1" as="geometry">
            <mxPoint y="590" as="sourcePoint" />
            <mxPoint x="50" y="540" as="targetPoint" />
          </mxGeometry>
        </mxCell>
        <mxCell id="byPFdI-Wewx-5iclTyy2-46" value="" style="endArrow=none;html=1;rounded=0;entryX=1;entryY=0.5;entryDx=0;entryDy=0;exitX=0;exitY=0.5;exitDx=0;exitDy=0;" parent="1" source="byPFdI-Wewx-5iclTyy2-43" target="byPFdI-Wewx-5iclTyy2-19" edge="1">
          <mxGeometry width="50" height="50" relative="1" as="geometry">
            <mxPoint y="590" as="sourcePoint" />
            <mxPoint x="50" y="540" as="targetPoint" />
          </mxGeometry>
        </mxCell>
        <mxCell id="byPFdI-Wewx-5iclTyy2-47" value="" style="endArrow=none;html=1;rounded=0;exitX=1;exitY=0.5;exitDx=0;exitDy=0;entryX=0;entryY=0.5;entryDx=0;entryDy=0;" parent="1" source="byPFdI-Wewx-5iclTyy2-1" target="byPFdI-Wewx-5iclTyy2-18" edge="1">
          <mxGeometry width="50" height="50" relative="1" as="geometry">
            <mxPoint x="140" y="578" as="sourcePoint" />
            <mxPoint x="190" y="528" as="targetPoint" />
          </mxGeometry>
        </mxCell>
        <mxCell id="byPFdI-Wewx-5iclTyy2-48" value="" style="endArrow=none;html=1;rounded=0;entryX=1;entryY=0.5;entryDx=0;entryDy=0;exitX=0;exitY=0.5;exitDx=0;exitDy=0;" parent="1" source="byPFdI-Wewx-5iclTyy2-19" target="byPFdI-Wewx-5iclTyy2-18" edge="1">
          <mxGeometry width="50" height="50" relative="1" as="geometry">
            <mxPoint x="175" y="588" as="sourcePoint" />
            <mxPoint x="320" y="447.9999999999998" as="targetPoint" />
          </mxGeometry>
        </mxCell>
        <mxCell id="byPFdI-Wewx-5iclTyy2-49" value="1" style="text;html=1;align=center;verticalAlign=middle;resizable=0;points=[];autosize=1;strokeColor=none;fillColor=none;" parent="1" vertex="1">
          <mxGeometry x="55" y="415" width="30" height="30" as="geometry" />
        </mxCell>
        <mxCell id="byPFdI-Wewx-5iclTyy2-50" value="N" style="text;html=1;align=center;verticalAlign=middle;resizable=0;points=[];autosize=1;strokeColor=none;fillColor=none;" parent="1" vertex="1">
          <mxGeometry x="250" y="410" width="30" height="30" as="geometry" />
        </mxCell>
        <mxCell id="byPFdI-Wewx-5iclTyy2-51" value="讲解内容" style="ellipse;whiteSpace=wrap;html=1;align=center;" parent="1" vertex="1">
          <mxGeometry x="510" y="620" width="100" height="40" as="geometry" />
        </mxCell>
        <mxCell id="byPFdI-Wewx-5iclTyy2-52" value="" style="endArrow=none;html=1;rounded=0;entryX=1;entryY=0.5;entryDx=0;entryDy=0;exitX=0;exitY=0.5;exitDx=0;exitDy=0;" parent="1" source="byPFdI-Wewx-5iclTyy2-51" target="byPFdI-Wewx-5iclTyy2-19" edge="1">
          <mxGeometry width="50" height="50" relative="1" as="geometry">
            <mxPoint x="-50" y="580" as="sourcePoint" />
            <mxPoint y="530" as="targetPoint" />
          </mxGeometry>
        </mxCell>
        <mxCell id="qDlBHxIfi48FZkqu32V5-1" value="创建时间" style="ellipse;whiteSpace=wrap;html=1;align=center;" vertex="1" parent="1">
          <mxGeometry x="510" y="330" width="100" height="40" as="geometry" />
        </mxCell>
        <mxCell id="qDlBHxIfi48FZkqu32V5-2" value="" style="endArrow=none;html=1;rounded=0;entryX=0;entryY=0.5;entryDx=0;entryDy=0;exitX=1;exitY=0.5;exitDx=0;exitDy=0;" edge="1" parent="1" source="byPFdI-Wewx-5iclTyy2-19" target="qDlBHxIfi48FZkqu32V5-1">
          <mxGeometry width="50" height="50" relative="1" as="geometry">
            <mxPoint x="200" y="630" as="sourcePoint" />
            <mxPoint x="250" y="580" as="targetPoint" />
          </mxGeometry>
        </mxCell>
        <mxCell id="qDlBHxIfi48FZkqu32V5-3" value="" style="endArrow=none;html=1;rounded=0;entryX=1;entryY=0.5;entryDx=0;entryDy=0;exitX=0;exitY=0.5;exitDx=0;exitDy=0;" edge="1" parent="1" source="byPFdI-Wewx-5iclTyy2-1" target="byPFdI-Wewx-5iclTyy2-23">
          <mxGeometry width="50" height="50" relative="1" as="geometry">
            <mxPoint x="-170" y="628" as="sourcePoint" />
            <mxPoint x="-120" y="578" as="targetPoint" />
          </mxGeometry>
        </mxCell>
        <mxCell id="qDlBHxIfi48FZkqu32V5-5" value="" style="endArrow=none;html=1;rounded=0;entryX=1;entryY=0.5;entryDx=0;entryDy=0;exitX=0;exitY=0.5;exitDx=0;exitDy=0;" edge="1" parent="1" source="byPFdI-Wewx-5iclTyy2-23" target="byPFdI-Wewx-5iclTyy2-21">
          <mxGeometry width="50" height="50" relative="1" as="geometry">
            <mxPoint x="-170" y="628" as="sourcePoint" />
            <mxPoint x="-120" y="578" as="targetPoint" />
          </mxGeometry>
        </mxCell>
        <mxCell id="qDlBHxIfi48FZkqu32V5-7" value="题目信息" style="ellipse;whiteSpace=wrap;html=1;align=center;" vertex="1" parent="1">
          <mxGeometry x="-620" y="338" width="100" height="40" as="geometry" />
        </mxCell>
        <mxCell id="qDlBHxIfi48FZkqu32V5-8" value="&lt;u&gt;课程记录号&lt;/u&gt;" style="ellipse;whiteSpace=wrap;html=1;align=center;" vertex="1" parent="1">
          <mxGeometry x="510" y="270" width="100" height="40" as="geometry" />
        </mxCell>
        <mxCell id="qDlBHxIfi48FZkqu32V5-9" value="" style="endArrow=none;html=1;rounded=0;entryX=0;entryY=0.5;entryDx=0;entryDy=0;exitX=1;exitY=0.5;exitDx=0;exitDy=0;" edge="1" parent="1" source="byPFdI-Wewx-5iclTyy2-19" target="qDlBHxIfi48FZkqu32V5-8">
          <mxGeometry width="50" height="50" relative="1" as="geometry">
            <mxPoint x="380" y="630" as="sourcePoint" />
            <mxPoint x="430" y="580" as="targetPoint" />
          </mxGeometry>
        </mxCell>
        <mxCell id="qDlBHxIfi48FZkqu32V5-10" value="1" style="text;html=1;align=center;verticalAlign=middle;resizable=0;points=[];autosize=1;strokeColor=none;fillColor=none;" vertex="1" parent="1">
          <mxGeometry x="5" y="558" width="30" height="30" as="geometry" />
        </mxCell>
        <mxCell id="qDlBHxIfi48FZkqu32V5-11" value="N" style="text;html=1;align=center;verticalAlign=middle;resizable=0;points=[];autosize=1;strokeColor=none;fillColor=none;" vertex="1" parent="1">
          <mxGeometry x="-5" y="698" width="30" height="30" as="geometry" />
        </mxCell>
        <mxCell id="qDlBHxIfi48FZkqu32V5-12" value="1" style="text;html=1;align=center;verticalAlign=middle;resizable=0;points=[];autosize=1;strokeColor=none;fillColor=none;" vertex="1" parent="1">
          <mxGeometry x="-160" y="408" width="30" height="30" as="geometry" />
        </mxCell>
        <mxCell id="qDlBHxIfi48FZkqu32V5-13" value="N" style="text;html=1;align=center;verticalAlign=middle;resizable=0;points=[];autosize=1;strokeColor=none;fillColor=none;" vertex="1" parent="1">
          <mxGeometry x="-315" y="406" width="30" height="30" as="geometry" />
        </mxCell>
        <mxCell id="qDlBHxIfi48FZkqu32V5-14" value="回答信息" style="ellipse;whiteSpace=wrap;html=1;align=center;" vertex="1" parent="1">
          <mxGeometry x="-620" y="418" width="100" height="40" as="geometry" />
        </mxCell>
        <mxCell id="qDlBHxIfi48FZkqu32V5-15" value="搜题编号" style="ellipse;whiteSpace=wrap;html=1;align=center;fontStyle=4" vertex="1" parent="1">
          <mxGeometry x="-620" y="498" width="100" height="40" as="geometry" />
        </mxCell>
        <mxCell id="qDlBHxIfi48FZkqu32V5-16" value="" style="endArrow=none;html=1;rounded=0;entryX=1;entryY=0.5;entryDx=0;entryDy=0;exitX=0;exitY=0.5;exitDx=0;exitDy=0;" edge="1" parent="1" source="byPFdI-Wewx-5iclTyy2-21" target="qDlBHxIfi48FZkqu32V5-7">
          <mxGeometry width="50" height="50" relative="1" as="geometry">
            <mxPoint x="-130" y="628" as="sourcePoint" />
            <mxPoint x="-80" y="578" as="targetPoint" />
          </mxGeometry>
        </mxCell>
        <mxCell id="qDlBHxIfi48FZkqu32V5-17" value="" style="endArrow=none;html=1;rounded=0;entryX=0;entryY=0.5;entryDx=0;entryDy=0;exitX=1;exitY=0.5;exitDx=0;exitDy=0;" edge="1" parent="1" source="qDlBHxIfi48FZkqu32V5-15" target="byPFdI-Wewx-5iclTyy2-21">
          <mxGeometry width="50" height="50" relative="1" as="geometry">
            <mxPoint x="-130" y="628" as="sourcePoint" />
            <mxPoint x="-80" y="578" as="targetPoint" />
          </mxGeometry>
        </mxCell>
        <mxCell id="qDlBHxIfi48FZkqu32V5-18" value="" style="endArrow=none;html=1;rounded=0;exitX=1;exitY=0.5;exitDx=0;exitDy=0;entryX=0;entryY=0.5;entryDx=0;entryDy=0;" edge="1" parent="1" source="qDlBHxIfi48FZkqu32V5-14" target="byPFdI-Wewx-5iclTyy2-21">
          <mxGeometry width="50" height="50" relative="1" as="geometry">
            <mxPoint x="-130" y="628" as="sourcePoint" />
            <mxPoint x="-80" y="578" as="targetPoint" />
          </mxGeometry>
        </mxCell>
        <mxCell id="qDlBHxIfi48FZkqu32V5-20" value="用户" style="whiteSpace=wrap;html=1;align=center;" vertex="1" parent="1">
          <mxGeometry x="-421" y="1085" width="100" height="40" as="geometry" />
        </mxCell>
        <mxCell id="qDlBHxIfi48FZkqu32V5-21" value="英语练习" style="whiteSpace=wrap;html=1;align=center;" vertex="1" parent="1">
          <mxGeometry x="64" y="1085" width="100" height="40" as="geometry" />
        </mxCell>
        <mxCell id="qDlBHxIfi48FZkqu32V5-22" value="使用" style="shape=rhombus;perimeter=rhombusPerimeter;whiteSpace=wrap;html=1;align=center;" vertex="1" parent="1">
          <mxGeometry x="-181" y="1075" width="120" height="60" as="geometry" />
        </mxCell>
        <mxCell id="qDlBHxIfi48FZkqu32V5-23" value="" style="endArrow=none;html=1;rounded=0;exitX=1;exitY=0.5;exitDx=0;exitDy=0;entryX=0;entryY=0.5;entryDx=0;entryDy=0;" edge="1" parent="1" source="qDlBHxIfi48FZkqu32V5-20" target="qDlBHxIfi48FZkqu32V5-22">
          <mxGeometry width="50" height="50" relative="1" as="geometry">
            <mxPoint x="-141" y="835" as="sourcePoint" />
            <mxPoint x="-91" y="785" as="targetPoint" />
          </mxGeometry>
        </mxCell>
        <mxCell id="qDlBHxIfi48FZkqu32V5-24" value="" style="endArrow=none;html=1;rounded=0;exitX=1;exitY=0.5;exitDx=0;exitDy=0;entryX=0;entryY=0.5;entryDx=0;entryDy=0;" edge="1" parent="1" source="qDlBHxIfi48FZkqu32V5-22" target="qDlBHxIfi48FZkqu32V5-21">
          <mxGeometry width="50" height="50" relative="1" as="geometry">
            <mxPoint x="9" y="1195" as="sourcePoint" />
            <mxPoint x="149" y="1195" as="targetPoint" />
          </mxGeometry>
        </mxCell>
        <mxCell id="qDlBHxIfi48FZkqu32V5-25" value="编号" style="ellipse;whiteSpace=wrap;html=1;align=center;fontStyle=4" vertex="1" parent="1">
          <mxGeometry x="264" y="1025" width="100" height="40" as="geometry" />
        </mxCell>
        <mxCell id="qDlBHxIfi48FZkqu32V5-27" value="" style="endArrow=none;html=1;rounded=0;entryX=0;entryY=0.5;entryDx=0;entryDy=0;exitX=1;exitY=0.5;exitDx=0;exitDy=0;" edge="1" parent="1" source="qDlBHxIfi48FZkqu32V5-21" target="qDlBHxIfi48FZkqu32V5-25">
          <mxGeometry relative="1" as="geometry">
            <mxPoint x="-226" y="845" as="sourcePoint" />
            <mxPoint x="-66" y="845" as="targetPoint" />
          </mxGeometry>
        </mxCell>
        <mxCell id="qDlBHxIfi48FZkqu32V5-31" value="" style="endArrow=none;html=1;rounded=0;entryX=0;entryY=0.5;entryDx=0;entryDy=0;exitX=1;exitY=0.5;exitDx=0;exitDy=0;" edge="1" parent="1" source="qDlBHxIfi48FZkqu32V5-21" target="qDlBHxIfi48FZkqu32V5-34">
          <mxGeometry relative="1" as="geometry">
            <mxPoint x="-226" y="845" as="sourcePoint" />
            <mxPoint x="284" y="1155" as="targetPoint" />
          </mxGeometry>
        </mxCell>
        <mxCell id="qDlBHxIfi48FZkqu32V5-32" value="1" style="text;html=1;align=center;verticalAlign=middle;resizable=0;points=[];autosize=1;strokeColor=none;fillColor=none;" vertex="1" parent="1">
          <mxGeometry x="-271" y="1073" width="30" height="30" as="geometry" />
        </mxCell>
        <mxCell id="qDlBHxIfi48FZkqu32V5-33" value="N" style="text;html=1;align=center;verticalAlign=middle;resizable=0;points=[];autosize=1;strokeColor=none;fillColor=none;" vertex="1" parent="1">
          <mxGeometry x="-31" y="1073" width="30" height="30" as="geometry" />
        </mxCell>
        <mxCell id="qDlBHxIfi48FZkqu32V5-34" value="记录" style="ellipse;whiteSpace=wrap;html=1;align=center;" vertex="1" parent="1">
          <mxGeometry x="264" y="1125" width="100" height="40" as="geometry" />
        </mxCell>
      </root>
    </mxGraphModel>
  </diagram>
</mxfile>
